<svg width="20" height="20" viewBox="0 0 20 20" fill="none" xmlns="http://www.w3.org/2000/svg">
<path fill-rule="evenodd" clip-rule="evenodd" d="M10 0.25C4.61522 0.25 0.25 4.61522 0.25 10C0.25 15.3848 4.61522 19.75 10 19.75C15.3848 19.75 19.75 15.3848 19.75 10C19.75 4.61522 15.3848 0.25 10 0.25ZM10 17.5C6.65724 17.4997 3.71822 15.2871 2.79348 12.0748C1.86874 8.86249 3.18153 5.42597 6.01246 3.64836C8.8434 1.87076 12.509 2.18125 15.0006 4.40969C15.3014 4.68767 15.3236 5.15554 15.0504 5.4607C14.7772 5.76587 14.3098 5.79546 14.0003 5.52719C11.9426 3.6867 8.89462 3.48784 6.61523 5.04536C4.33583 6.60288 3.41341 9.51475 4.38027 12.1006C5.34713 14.6865 7.95369 16.2789 10.6958 15.9588C13.4379 15.6388 15.6077 13.489 15.9531 10.75H10C9.58579 10.75 9.25 10.4142 9.25 10C9.25 9.58579 9.58579 9.25 10 9.25H16.75C17.1642 9.25 17.5 9.58579 17.5 10C17.4953 14.1402 14.1402 17.4953 10 17.5Z" fill="white"/>
</svg>
