<svg width="18" height="18" viewBox="0 0 18 18" fill="none" xmlns="http://www.w3.org/2000/svg">
<path fill-rule="evenodd" clip-rule="evenodd" d="M18 9C18.0002 13.3747 14.8546 17.116 10.5448 17.8669C6.23497 18.6178 2.00942 16.1608 0.530141 12.0437C-0.949138 7.92669 0.746361 3.34222 4.54851 1.17843C8.35067 -0.985358 13.1581 -0.101661 15.9422 3.27281C16.1245 3.47796 16.1802 3.76631 16.0874 4.02461C15.9946 4.28291 15.7682 4.46989 15.497 4.51211C15.2258 4.55433 14.9532 4.44505 14.7862 4.22719C12.5117 1.46926 8.6068 0.700036 5.45621 2.38926C2.30563 4.07849 0.78521 7.75659 1.82346 11.1774C2.86172 14.5981 6.17002 16.8106 9.72801 16.4637C13.286 16.1168 16.1046 13.3069 16.4625 9.75H9C8.58579 9.75 8.25 9.41421 8.25 9C8.25 8.58579 8.58579 8.25 9 8.25H17.25C17.6642 8.25 18 8.58579 18 9Z" fill="white"/>
</svg>
