<svg fill="none" xmlns="http://www.w3.org/2000/svg" viewBox="0 0 24 24"><g clip-path="url(#a)"><path fill-rule="evenodd" clip-rule="evenodd" d="M12 24c6.627 0 12-5.373 12-12S18.627 0 12 0 0 5.373 0 12s5.373 12 12 12Zm.02-21.734a2.679 2.679 0 1 1 0 5.358 2.679 2.679 0 0 1 0-5.358Zm0 5.358h-1.773c-.769 0-1.5.33-2.01.907l-3.78 4.288A1.674 1.674 0 0 0 6.81 15.2l1.365-1.095L6.79 19.37a1.675 1.675 0 1 0 3.052 1.383l2.177-3.757 2.176 3.757a1.675 1.675 0 0 0 3.048-1.383l-1.38-5.265 1.364 1.095a1.675 1.675 0 0 0 2.355-2.38l-3.782-4.288a2.68 2.68 0 0 0-2.01-.907H12.02Zm-1.34-2.679a1.34 1.34 0 1 0 2.68 0 1.34 1.34 0 0 0-2.68 0Zm7.702 9.376a.335.335 0 0 0 .237-.571.523.523 0 0 1-.028-.031l-3.794-4.302a1.34 1.34 0 0 0-1.005-.453h-3.545c-.384 0-.75.164-1.005.453l-3.794 4.302a.506.506 0 0 1-.028.031.335.335 0 1 0 .474.473.744.744 0 0 1 .054-.049l2.974-2.384a.67.67 0 0 1 1.066.69l-1.913 7.28a.64.64 0 0 1-.04.112.335.335 0 1 0 .608.284.526.526 0 0 1 .028-.053l2.77-4.777a.67.67 0 0 1 1.158 0l2.773 4.78a.51.51 0 0 1 .027.054.335.335 0 1 0 .607-.283.643.643 0 0 1-.04-.113l-1.915-7.284a.67.67 0 0 1 1.066-.69l2.974 2.385c.02.015.037.031.054.048a.335.335 0 0 0 .237.098Z" fill="#fff"/></g><defs><clipPath id="a"><path fill="#fff" d="M0 0h24v24H0z"/></clipPath></defs></svg>