<svg xmlns="http://www.w3.org/2000/svg" version="1.1" id="Layer_1" x="0" y="0" style="enable-background: new 0 0 1000 1000" xml:space="preserve" viewBox="301.05 301.05 397.9 397.9">  <style>    .st5 {      fill: #fff;    }  </style>  <linearGradient id="SVGID_1_" gradientUnits="userSpaceOnUse" x1="348.527" y1="500.007" x2="651.487" y2="500.007">    <stop offset="0" style="stop-color: #893bff"></stop>    <stop offset="1" style="stop-color: #b180ff"></stop>  </linearGradient>  <path d="M651.49 500c0 83.54-67.95 151.49-151.49 151.49-83.52 0-151.47-67.95-151.47-151.49 0-83.52 67.95-151.47 151.47-151.47 83.54 0 151.49 67.95 151.49 151.47z" style="fill: url(#SVGID_1_)"></path>  <linearGradient id="SVGID_00000070115384962191460050000000904214391035638192_" gradientUnits="userSpaceOnUse" x1="301.05" y1="500" x2="698.95" y2="500">    <stop offset="0" style="stop-color: #893bff"></stop>    <stop offset="1" style="stop-color: #b180ff"></stop>  </linearGradient>  <path style="       fill: url(#SVGID_00000070115384962191460050000000904214391035638192_);     " d="M500 301.05c-109.87 0-198.95 89.08-198.95 198.95 0 109.89 89.08 198.95 198.95 198.95 109.89 0 198.95-89.06 198.95-198.95 0-109.87-89.06-198.95-198.95-198.95zm0 354.48c-85.76 0-155.53-69.77-155.53-155.53S414.24 344.47 500 344.47 655.53 414.24 655.53 500 585.76 655.53 500 655.53z"></path>  <linearGradient id="SVGID_00000158732727525883152480000015245338008564034751_" gradientUnits="userSpaceOnUse" x1="515.849" y1="510.127" x2="515.849" y2="439.06">    <stop offset="0" style="stop-color: #893bff"></stop>    <stop offset="1" style="stop-color: #b180ff"></stop>  </linearGradient>  <path style="       fill: url(#SVGID_00000158732727525883152480000015245338008564034751_);     " d="M552.78 469.53v28.43l-3.54 2.04-17.54 10.13V481.7l-3.54-2.04-3.54-2.05-17.54-10.12-3.54-2.05-3.54-2.04-3.54-2.05-17.54-10.12 17.54-10.13 3.54-2.04 3.54 2.04 17.54 10.13 3.54 2.05 3.54 2.04 3.54 2.04 17.54 10.13z"></path>  <linearGradient id="SVGID_00000099659247972471303580000011086256481219903125_" gradientUnits="userSpaceOnUse" x1="485.921" y1="593.454" x2="485.921" y2="422.801">    <stop offset="0" style="stop-color: #893bff"></stop>    <stop offset="1" style="stop-color: #b180ff"></stop>  </linearGradient>  <path style="       fill: url(#SVGID_00000099659247972471303580000011086256481219903125_);     " d="M552.78 534.55v28.44l-3.54 2.04-17.54 10.12-3.54 2.05-3.54 2.04-3.54 2.05-17.54 10.12-3.54 2.04-3.54-2.04-17.54-10.12-3.54-2.05-3.54-2.04-3.54-2.05-17.54-10.12-3.54-2.05-3.54-2.04-3.53-2.04-17.55-10.13-3.53-2.04v-93.46l3.53-2.04 17.55-10.13 3.53-2.04 3.54-2.04 3.54-2.05 17.54-10.12 3.54-2.05 3.54 2.05 17.54 10.12-17.54 10.13-3.54 2.04-3.54 2.04-3.54 2.05-17.54 10.12-3.54 2.05-3.53 2.04v69.12l3.53 2.04 3.54 2.05 17.54 10.12 3.54 2.05 3.54 2.04 3.54 2.04 17.54 10.13 3.54 2.04 3.54 2.05 3.54-2.05 3.54-2.04 17.54-10.13 3.54-2.04 3.54-2.04 3.54-2.05-3.54-2.04-3.54-2.05-3.54-2.04-17.54-10.13-3.54-2.04-3.54-2.04-3.54-2.05-17.54-10.13-3.54-2.04-3.54-2.04-3.54-2.04L450.76 500l-3.54-2.04v-28.43l3.54-2.04 17.54-10.13 3.54-2.04 3.54 2.04 17.54 10.13-17.54 10.12-3.54 2.05-3.54 2.04v4.09l3.54 2.04 3.54 2.04L492.93 500l3.53 2.04 3.54 2.04 3.54 2.05 17.54 10.12 3.54 2.05 3.54 2.04 3.54 2.05 17.54 10.12z"></path>  <linearGradient id="SVGID_00000160904169520150332270000017909257873301067682_" gradientUnits="userSpaceOnUse" x1="529.927" y1="558.9" x2="529.927" y2="406.546">    <stop offset="0" style="stop-color: #893bff"></stop>    <stop offset="1" style="stop-color: #b180ff"></stop>  </linearGradient>  <path style="       fill: url(#SVGID_00000160904169520150332270000017909257873301067682_);     " d="M580.93 453.27v93.46l-3.53 2.04-17.55 10.13v-93.46l-3.53-2.04-3.54-2.05-17.54-10.12-3.54-2.05-3.54-2.04-3.54-2.04-17.54-10.13-3.54-2.04-3.54-2.05-3.54-2.04-17.54-10.13 17.54-10.12 3.54-2.04 3.54 2.04 17.54 10.12 3.54 2.05 3.54 2.04 3.54 2.05 17.54 10.12 3.54 2.04 3.54 2.05 3.53 2.04 17.55 10.13z"></path>  <path class="st5" d="M552.78 469.53v28.43l-3.54 2.04-17.54 10.13V481.7l-3.54-2.04-3.54-2.05-17.54-10.12-3.54-2.05-3.54-2.04-3.54-2.05-17.54-10.12 17.54-10.13 3.54-2.04 3.54 2.04 17.54 10.13 3.54 2.05 3.54 2.04 3.54 2.04 17.54 10.13z"></path>  <path class="st5" d="M552.78 534.55v28.44l-3.54 2.04-17.54 10.12-3.54 2.05-3.54 2.04-3.54 2.05-17.54 10.12-3.54 2.04-3.54-2.04-17.54-10.12-3.54-2.05-3.54-2.04-3.54-2.05-17.54-10.12-3.54-2.05-3.54-2.04-3.53-2.04-17.55-10.13-3.53-2.04v-93.46l3.53-2.04 17.55-10.13 3.53-2.04 3.54-2.04 3.54-2.05 17.54-10.12 3.54-2.05 3.54 2.05 17.54 10.12-17.54 10.13-3.54 2.04-3.54 2.04-3.54 2.05-17.54 10.12-3.54 2.05-3.53 2.04v69.12l3.53 2.04 3.54 2.05 17.54 10.12 3.54 2.05 3.54 2.04 3.54 2.04 17.54 10.13 3.54 2.04 3.54 2.05 3.54-2.05 3.54-2.04 17.54-10.13 3.54-2.04 3.54-2.04 3.54-2.05-3.54-2.04-3.54-2.05-3.54-2.04-17.54-10.13-3.54-2.04-3.54-2.04-3.54-2.05-17.54-10.13-3.54-2.04-3.54-2.04-3.54-2.04L450.76 500l-3.54-2.04v-28.43l3.54-2.04 17.54-10.13 3.54-2.04 3.54 2.04 17.54 10.13-17.54 10.12-3.54 2.05-3.54 2.04v4.09l3.54 2.04 3.54 2.04L492.93 500l3.53 2.04 3.54 2.04 3.54 2.05 17.54 10.12 3.54 2.05 3.54 2.04 3.54 2.05 17.54 10.12z"></path>  <path class="st5" d="M580.93 453.27v93.46l-3.53 2.04-17.55 10.13v-93.46l-3.53-2.04-3.54-2.05-17.54-10.12-3.54-2.05-3.54-2.04-3.54-2.04-17.54-10.13-3.54-2.04-3.54-2.05-3.54-2.04-17.54-10.13 17.54-10.12 3.54-2.04 3.54 2.04 17.54 10.12 3.54 2.05 3.54 2.04 3.54 2.05 17.54 10.12 3.54 2.04 3.54 2.05 3.53 2.04 17.55 10.13z"></path></svg>