<svg width="37" height="37" viewBox="0 0 37 37" fill="none" xmlns="http://www.w3.org/2000/svg">
<path d="M24.5389 24.8344L18.4999 18.7954L12.4609 24.8344" stroke="white" stroke-width="1.50974" stroke-linecap="round" stroke-linejoin="round"/>
<path d="M18.5 18.7954V32.3831" stroke="white" stroke-width="1.50974" stroke-linecap="round" stroke-linejoin="round"/>
<path d="M31.1667 28.4426C32.6392 27.6398 33.8024 26.3696 34.4728 24.8323C35.1432 23.295 35.2825 21.5782 34.8689 19.9529C34.4552 18.3276 33.512 16.8863 32.1883 15.8566C30.8645 14.8268 29.2355 14.2673 27.5584 14.2662H25.6561C25.1991 12.4986 24.3474 10.8577 23.165 9.46668C21.9825 8.0757 20.5001 6.97087 18.8292 6.23526C17.1583 5.49965 15.3424 5.1524 13.518 5.21962C11.6936 5.28684 9.90813 5.76677 8.29589 6.62335C6.68365 7.47992 5.28658 8.69084 4.20969 10.1651C3.13281 11.6393 2.40415 13.3385 2.07848 15.1349C1.75282 16.9312 1.83862 18.7781 2.32945 20.5365C2.82028 22.2949 3.70336 23.9192 4.9123 25.2873" stroke="white" stroke-width="1.50974" stroke-linecap="round" stroke-linejoin="round"/>
<path d="M24.5389 24.8344L18.4999 18.7954L12.4609 24.8344" stroke="white" stroke-width="1.50974" stroke-linecap="round" stroke-linejoin="round"/>
</svg>
