<?xml version="1.0" encoding="utf-8"?>
<!-- Generator: Adobe Illustrator 24.3.0, SVG Export Plug-In . SVG Version: 6.00 Build 0)  -->
<svg version="1.1" id="Layer_1" xmlns="http://www.w3.org/2000/svg" xmlns:xlink="http://www.w3.org/1999/xlink" x="0px" y="0px"
	 viewBox="60 389 880 200" style="enable-background:new 60 389 880 200;" xml:space="preserve">
<style type="text/css">
	.st0{fill:#17B982;}
	.st1{fill:#FFFFFF;}
</style>
<g>
	<g>
		<polygon class="st0" points="223.31,463.29 223.31,497.54 219.05,500 197.92,512.2 197.92,477.95 193.66,475.49 189.39,473.03 
			168.26,460.83 164,458.36 159.73,455.9 155.47,453.44 134.34,441.24 155.47,429.04 159.73,426.58 164,429.04 185.13,441.24 
			189.39,443.71 193.66,446.16 197.92,448.63 219.05,460.83 		"/>
		<polygon class="st0" points="223.31,541.63 223.31,575.89 219.05,578.35 197.92,590.55 193.66,593.01 189.39,595.47 
			185.13,597.93 164,610.13 159.73,612.59 155.47,610.13 134.34,597.93 130.07,595.47 125.81,593.01 125.8,593.01 121.54,590.55 
			100.41,578.35 96.15,575.88 91.88,573.42 87.62,570.96 66.48,558.76 62.22,556.3 62.22,443.7 66.48,441.24 87.62,429.04 
			91.88,426.58 96.15,424.12 100.41,421.65 121.54,409.45 125.8,406.99 125.81,406.99 130.07,409.45 151.2,421.65 130.07,433.86 
			125.81,436.32 121.54,438.78 117.28,441.24 96.15,453.44 91.88,455.9 87.62,458.36 87.62,541.64 91.88,544.1 96.15,546.56 
			117.28,558.76 121.54,561.22 125.81,563.68 130.07,566.14 151.2,578.35 155.47,580.81 159.73,583.27 164,580.81 168.26,578.35 
			189.39,566.14 193.66,563.68 197.92,561.22 202.18,558.76 197.92,556.3 193.66,553.84 189.39,551.37 168.26,539.17 164,536.71 
			159.73,534.25 155.47,531.78 134.34,519.58 130.07,517.13 125.81,514.66 121.54,512.2 100.41,500 96.15,497.54 96.15,463.29 
			100.41,460.83 121.54,448.63 125.81,446.16 130.07,448.63 151.2,460.83 130.07,473.03 125.81,475.49 121.54,477.95 121.54,482.87 
			125.81,485.34 130.07,487.8 151.21,500 155.47,502.46 159.73,504.92 164,507.38 185.13,519.58 189.39,522.05 193.66,524.51 
			197.92,526.97 219.05,539.17 		"/>
		<polygon class="st0" points="257.24,443.7 257.24,556.3 252.98,558.76 231.84,570.96 231.84,458.36 227.58,455.9 223.31,453.44 
			202.18,441.24 197.92,438.78 193.66,436.32 189.39,433.86 168.26,421.65 164,419.19 159.73,416.73 155.47,414.27 134.34,402.07 
			155.47,389.87 159.73,387.41 164,389.87 185.13,402.07 189.39,404.53 193.66,406.99 197.92,409.45 219.05,421.65 223.31,424.11 
			227.58,426.58 231.84,429.04 252.98,441.24 		"/>
	</g>
	<g>
		<path class="st1" d="M345.94,463.19c-7.08,0-14.71,2.05-14.71,10.06c0,7.46,7.45,11.37,20.67,14.54l4.84,1.12
			c17.51,4.1,40.04,10.44,40.04,36.91c0,27.03-27.75,35.97-51.96,35.97c-16.2,0-35.57-4.1-47.86-12.12l3.35-26.28
			c10.8,8.2,33.34,13.98,47.86,13.98c8.75,0,17.88-2.05,17.88-11.18c0-8.2-10.62-10.81-22.91-13.98l-11.73-3.17
			c-15.83-5.03-30.91-13.98-30.91-35.41c0-26.28,22.72-35.41,45.81-35.41c16.39,0,33.34,3.91,43.58,8.57l-3.35,26.84
			C377.23,468.78,358.23,463.19,345.94,463.19z"/>
		<path class="st1" d="M483.19,559.74v-18.83c-3.35,10.25-15.64,20.88-30.17,20.88c-25.33,0-44.51-20.13-44.51-46.97
			c0-26.28,17.69-49.21,43.21-49.21c13.97,0,24.77,7.08,30.91,20.69v-18.83h27.56v92.26H483.19z M459.54,537.93
			c14.34,0,23.28-11.18,23.28-24.23c0-13.05-8.75-24.04-23.28-24.04c-14.34,0-23.09,11-23.09,24.04
			C436.45,526.75,445.39,537.93,459.54,537.93z"/>
		<path class="st1" d="M532.73,467.66h26.63v92.26h-26.63V467.66z"/>
		<path class="st1" d="M581.89,559.74v-92.26h26.44v18.83c6.15-14.17,20.49-20.69,30.73-20.69c27.75,0,36.13,21.44,36.13,46.23v47.9
			h-26.63v-47.16c0-13.23-5.21-22.37-18.44-22.37c-14.9,0-21.6,15.1-21.6,23.67v45.85H581.89z"/>
		<path class="st1" d="M704.62,467.47v-22.74l26.07-4.29v27.03h27.93v23.67h-26.63v45.11h31.29v23.49h-31.47
			c-16.95,0-27.38-9.13-27.38-26.65v-41.94h-19.18v-23.67H704.62z"/>
		<path class="st1" d="M818.4,440.26h25.7l49.54,119.48H863.1l-11.55-30.57h-40.41l-11.73,30.57h-30.36L818.4,440.26z
			 M843.54,507.74l-12.29-31.87l-12.29,31.87H843.54z"/>
		<path class="st1" d="M908.72,559.74V440.26h29.05v119.48H908.72z"/>
	</g>
</g>
</svg>
